<svg xmlns="http://www.w3.org/2000/svg" xmlns:xlink="http://www.w3.org/1999/xlink" width="1080" zoomAndPan="magnify" viewBox="0 0 810 809.999993" height="1080" preserveAspectRatio="xMidYMid meet" version="1.0"><defs><clipPath id="38daa04ac6"><path d="M 82 2 L 716 2 L 716 530.992188 L 82 530.992188 Z M 82 2 " clip-rule="nonzero"/></clipPath><clipPath id="75599c7461"><rect x="0" width="804" y="0" height="532"/></clipPath></defs><g transform="matrix(1, 0, 0, 1, 3, 141)"><g clip-path="url(#75599c7461)"><g clip-path="url(#38daa04ac6)"><path fill="#6e6d6d" d="M 475.816406 530.480469 L 432.136719 530.480469 C 432.136719 444.933594 391.566406 399.449219 363.996094 378.421875 C 363.421875 380.445312 362.796875 382.453125 362.121094 384.445312 C 361.449219 386.441406 360.726562 388.414062 359.957031 390.375 C 359.1875 392.332031 358.371094 394.269531 357.507812 396.1875 C 356.644531 398.105469 355.730469 400.003906 354.773438 401.875 C 353.816406 403.75 352.816406 405.597656 351.769531 407.425781 C 350.722656 409.25 349.628906 411.046875 348.496094 412.820312 C 347.359375 414.589844 346.183594 416.332031 344.964844 418.046875 C 343.742188 419.761719 342.480469 421.445312 341.179688 423.097656 C 339.878906 424.75 338.535156 426.371094 337.15625 427.957031 C 335.773438 429.542969 334.355469 431.097656 332.898438 432.617188 C 331.441406 434.132812 329.945312 435.613281 328.417969 437.058594 C 326.886719 438.503906 325.324219 439.910156 323.726562 441.28125 C 322.128906 442.648438 320.496094 443.976562 318.835938 445.265625 C 317.171875 446.554688 315.480469 447.804688 313.753906 449.007812 C 312.03125 450.214844 310.277344 451.378906 308.5 452.5 C 306.71875 453.621094 304.910156 454.699219 303.078125 455.730469 C 301.246094 456.761719 299.386719 457.75 297.503906 458.691406 C 295.625 459.632812 293.722656 460.53125 291.796875 461.378906 C 289.871094 462.226562 287.925781 463.027344 285.960938 463.785156 C 283.996094 464.539062 282.015625 465.242188 280.019531 465.902344 C 278.019531 466.558594 276.003906 467.167969 273.976562 467.726562 C 271.949219 468.285156 269.90625 468.792969 267.855469 469.253906 C 265.800781 469.710938 263.738281 470.121094 261.664062 470.480469 C 259.589844 470.839844 257.511719 471.148438 255.421875 471.40625 C 253.335938 471.660156 251.242188 471.867188 249.144531 472.023438 C 247.042969 472.179688 244.945312 472.28125 242.839844 472.335938 C 240.738281 472.386719 238.632812 472.386719 236.53125 472.335938 C 234.425781 472.289062 232.324219 472.1875 230.226562 472.035156 C 228.128906 471.878906 226.035156 471.675781 223.945312 471.421875 C 221.859375 471.167969 219.777344 470.859375 217.703125 470.503906 C 215.628906 470.148438 213.566406 469.742188 211.511719 469.285156 C 209.460938 468.828125 207.417969 468.320312 205.390625 467.761719 C 203.359375 467.207031 201.347656 466.597656 199.347656 465.945312 C 197.347656 465.289062 195.363281 464.585938 193.398438 463.832031 C 191.433594 463.082031 189.488281 462.28125 187.5625 461.433594 C 185.636719 460.585938 183.734375 459.695312 181.851562 458.753906 C 179.96875 457.8125 178.109375 456.828125 176.277344 455.796875 C 174.441406 454.769531 172.632812 453.691406 170.851562 452.574219 C 169.070312 451.457031 167.316406 450.292969 165.589844 449.089844 C 163.867188 447.882812 162.171875 446.636719 160.507812 445.351562 C 158.84375 444.0625 157.210938 442.738281 155.613281 441.371094 C 154.011719 440.003906 152.445312 438.597656 150.914062 437.15625 C 149.386719 435.710938 147.890625 434.230469 146.429688 432.714844 C 144.972656 431.199219 143.550781 429.648438 142.167969 428.0625 C 140.785156 426.476562 139.441406 424.859375 138.136719 423.207031 C 136.835938 421.554688 135.570312 419.875 134.347656 418.160156 C 133.128906 416.449219 131.949219 414.707031 130.8125 412.9375 C 129.675781 411.164062 128.582031 409.367188 127.53125 407.546875 C 126.484375 405.722656 125.480469 403.871094 124.519531 402 C 123.5625 400.128906 122.648438 398.230469 121.78125 396.316406 C 120.914062 394.398438 120.097656 392.460938 119.324219 390.503906 C 118.554688 388.546875 117.828125 386.570312 117.152344 384.578125 C 116.480469 382.585938 115.851562 380.578125 115.273438 378.554688 C 114.699219 376.53125 114.167969 374.496094 113.691406 372.445312 C 113.214844 370.398438 112.785156 368.335938 112.410156 366.265625 C 112.03125 364.199219 111.703125 362.121094 111.429688 360.035156 C 111.152344 357.949219 110.925781 355.855469 110.753906 353.761719 C 110.578125 351.664062 110.457031 349.5625 110.386719 347.460938 C 110.3125 345.359375 110.292969 343.253906 110.324219 341.152344 C 110.355469 339.046875 110.4375 336.945312 110.574219 334.84375 C 110.707031 332.746094 110.890625 330.648438 111.128906 328.558594 C 111.363281 326.46875 111.648438 324.386719 111.988281 322.308594 C 112.324219 320.230469 112.714844 318.164062 113.152344 316.105469 C 113.589844 314.050781 114.082031 312.003906 114.617188 309.96875 C 112.683594 307.761719 110.828125 305.488281 109.046875 303.15625 C 107.265625 300.820312 105.570312 298.425781 103.953125 295.976562 C 102.335938 293.527344 100.804688 291.023438 99.355469 288.46875 C 97.910156 285.914062 96.550781 283.3125 95.28125 280.664062 C 94.011719 278.019531 92.835938 275.332031 91.75 272.605469 C 90.664062 269.875 89.671875 267.113281 88.773438 264.320312 C 87.875 261.523438 87.074219 258.703125 86.367188 255.851562 C 85.660156 253.003906 85.054688 250.132812 84.542969 247.242188 C 84.03125 244.351562 83.621094 241.445312 83.308594 238.527344 C 82.996094 235.605469 82.785156 232.679688 82.671875 229.746094 C 82.558594 226.8125 82.546875 223.878906 82.632812 220.945312 C 82.71875 218.007812 82.90625 215.082031 83.191406 212.160156 C 83.476562 209.238281 83.863281 206.328125 84.347656 203.433594 C 84.832031 200.539062 85.414062 197.664062 86.09375 194.804688 C 86.777344 191.949219 87.550781 189.121094 88.425781 186.316406 C 89.300781 183.515625 90.265625 180.746094 91.328125 178.007812 C 92.390625 175.269531 93.542969 172.574219 94.789062 169.914062 C 96.035156 167.257812 97.371094 164.644531 98.792969 162.074219 C 100.21875 159.507812 101.726562 156.992188 103.320312 154.527344 C 104.917969 152.0625 106.59375 149.65625 108.351562 147.304688 C 110.113281 144.953125 111.949219 142.664062 113.863281 140.441406 C 115.777344 138.214844 117.765625 136.058594 119.828125 133.96875 C 121.890625 131.878906 124.019531 129.859375 126.222656 127.914062 C 128.421875 125.96875 130.683594 124.101562 133.007812 122.3125 C 135.335938 120.523438 137.722656 118.8125 140.164062 117.183594 C 142.605469 115.554688 145.101562 114.011719 147.652344 112.554688 C 150.199219 111.097656 152.792969 109.726562 155.433594 108.445312 C 158.078125 107.164062 160.757812 105.972656 163.480469 104.875 C 166.203125 103.777344 168.960938 102.773438 171.75 101.859375 C 174.542969 100.949219 177.359375 100.136719 180.207031 99.417969 C 183.054688 98.699219 185.921875 98.078125 188.808594 97.554688 C 191.699219 97.03125 194.601562 96.605469 197.519531 96.28125 C 198.476562 92.925781 199.570312 89.617188 200.792969 86.351562 C 202.019531 83.082031 203.371094 79.871094 204.855469 76.714844 C 206.339844 73.558594 207.949219 70.46875 209.679688 67.441406 C 211.414062 64.414062 213.265625 61.460938 215.238281 58.585938 C 217.210938 55.707031 219.292969 52.914062 221.492188 50.207031 C 223.6875 47.496094 225.992188 44.878906 228.398438 42.355469 C 230.804688 39.832031 233.3125 37.410156 235.914062 35.089844 C 238.519531 32.769531 241.210938 30.558594 243.992188 28.453125 C 246.777344 26.347656 249.636719 24.359375 252.582031 22.488281 C 255.523438 20.617188 258.535156 18.863281 261.621094 17.234375 C 264.703125 15.605469 267.847656 14.101562 271.054688 12.726562 C 274.257812 11.351562 277.515625 10.105469 280.820312 8.992188 C 284.125 7.878906 287.46875 6.902344 290.855469 6.058594 C 294.238281 5.214844 297.652344 4.507812 301.09375 3.941406 C 304.535156 3.375 307.992188 2.945312 311.46875 2.65625 C 314.945312 2.367188 318.425781 2.21875 321.914062 2.210938 C 325.867188 2.195312 329.8125 2.363281 333.75 2.710938 C 337.6875 3.0625 341.601562 3.589844 345.488281 4.300781 C 349.375 5.011719 353.222656 5.902344 357.027344 6.96875 C 360.835938 8.039062 364.582031 9.277344 368.273438 10.691406 C 371.964844 12.105469 375.582031 13.6875 379.128906 15.4375 C 382.671875 17.1875 386.128906 19.097656 389.496094 21.164062 C 392.863281 23.234375 396.128906 25.453125 399.292969 27.824219 C 402.453125 30.195312 405.5 32.710938 408.429688 35.363281 C 410.582031 33.566406 412.789062 31.839844 415.054688 30.183594 C 417.316406 28.527344 419.632812 26.949219 422 25.445312 C 424.367188 23.941406 426.777344 22.515625 429.238281 21.167969 C 431.699219 19.820312 434.199219 18.554688 436.738281 17.371094 C 439.28125 16.1875 441.859375 15.085938 444.472656 14.070312 C 447.085938 13.054688 449.726562 12.121094 452.402344 11.277344 C 455.074219 10.433594 457.773438 9.675781 460.496094 9.003906 C 463.21875 8.335938 465.960938 7.757812 468.722656 7.265625 C 471.484375 6.773438 474.257812 6.371094 477.042969 6.0625 C 479.832031 5.75 482.625 5.53125 485.425781 5.402344 C 488.226562 5.273438 491.027344 5.234375 493.832031 5.289062 C 496.636719 5.34375 499.433594 5.488281 502.230469 5.722656 C 505.023438 5.957031 507.804688 6.285156 510.578125 6.699219 C 513.351562 7.117188 516.109375 7.621094 518.847656 8.21875 C 521.589844 8.8125 524.308594 9.496094 527.003906 10.269531 C 529.699219 11.042969 532.367188 11.902344 535.003906 12.847656 C 537.644531 13.792969 540.25 14.824219 542.824219 15.9375 C 545.394531 17.054688 547.929688 18.253906 550.425781 19.53125 C 552.917969 20.8125 555.371094 22.171875 557.777344 23.613281 C 560.183594 25.050781 562.539062 26.566406 564.847656 28.160156 C 567.15625 29.753906 569.410156 31.417969 571.609375 33.160156 C 573.808594 34.898438 575.949219 36.707031 578.027344 38.585938 C 580.109375 40.464844 582.128906 42.410156 584.085938 44.417969 C 586.039062 46.429688 587.925781 48.5 589.746094 50.632812 C 591.570312 52.765625 593.316406 54.953125 594.996094 57.203125 C 596.675781 59.449219 598.277344 61.746094 599.804688 64.097656 C 601.335938 66.449219 602.785156 68.847656 604.15625 71.292969 C 605.53125 73.734375 606.820312 76.222656 608.03125 78.753906 C 609.242188 81.28125 610.371094 83.847656 611.414062 86.449219 C 612.460938 89.050781 613.417969 91.6875 614.289062 94.351562 C 615.164062 97.015625 615.949219 99.707031 616.644531 102.421875 C 617.34375 105.136719 617.953125 107.871094 618.472656 110.628906 C 620.355469 111.117188 622.226562 111.644531 624.085938 112.21875 C 625.945312 112.789062 627.792969 113.402344 629.625 114.058594 C 631.453125 114.714844 633.269531 115.410156 635.070312 116.148438 C 636.871094 116.886719 638.652344 117.664062 640.417969 118.480469 C 642.183594 119.300781 643.929688 120.15625 645.65625 121.054688 C 647.382812 121.949219 649.089844 122.886719 650.773438 123.859375 C 652.457031 124.832031 654.117188 125.84375 655.757812 126.894531 C 657.394531 127.941406 659.011719 129.027344 660.601562 130.148438 C 662.1875 131.269531 663.753906 132.425781 665.289062 133.621094 C 666.828125 134.8125 668.335938 136.039062 669.820312 137.296875 C 671.300781 138.558594 672.753906 139.851562 674.179688 141.175781 C 675.601562 142.503906 676.996094 143.859375 678.355469 145.25 C 679.71875 146.636719 681.050781 148.058594 682.347656 149.503906 C 683.648438 150.953125 684.910156 152.433594 686.144531 153.9375 C 687.375 155.445312 688.574219 156.976562 689.734375 158.535156 C 690.898438 160.097656 692.023438 161.683594 693.113281 163.292969 C 694.207031 164.902344 695.261719 166.539062 696.277344 168.195312 C 697.292969 169.855469 698.273438 171.535156 699.214844 173.238281 C 700.15625 174.941406 701.058594 176.664062 701.921875 178.40625 C 702.785156 180.152344 703.609375 181.914062 704.394531 183.691406 C 705.175781 185.472656 705.921875 187.269531 706.625 189.085938 C 707.328125 190.898438 707.988281 192.726562 708.609375 194.570312 C 709.230469 196.414062 709.808594 198.273438 710.34375 200.144531 C 710.878906 202.011719 711.375 203.894531 711.824219 205.785156 C 712.277344 207.679688 712.6875 209.582031 713.050781 211.492188 C 713.417969 213.402344 713.738281 215.320312 714.019531 217.246094 C 714.296875 219.171875 714.535156 221.101562 714.726562 223.039062 C 714.917969 224.972656 715.066406 226.914062 715.171875 228.855469 C 715.273438 230.796875 715.335938 232.742188 715.351562 234.6875 C 715.367188 236.632812 715.339844 238.578125 715.269531 240.523438 C 715.199219 242.464844 715.085938 244.40625 714.925781 246.347656 C 714.765625 248.285156 714.5625 250.21875 714.316406 252.148438 C 714.070312 254.082031 713.78125 256.003906 713.449219 257.921875 C 713.117188 259.835938 712.742188 261.746094 712.320312 263.644531 C 711.902344 265.542969 711.441406 267.433594 710.9375 269.3125 C 710.433594 271.191406 709.886719 273.058594 709.296875 274.914062 C 708.710938 276.765625 708.078125 278.609375 707.40625 280.433594 C 706.734375 282.257812 706.023438 284.070312 705.269531 285.863281 C 704.515625 287.65625 703.722656 289.433594 702.890625 291.191406 C 702.054688 292.949219 701.183594 294.6875 700.273438 296.40625 C 699.359375 298.125 698.410156 299.820312 697.421875 301.496094 C 696.433594 303.171875 695.40625 304.824219 694.34375 306.453125 C 693.28125 308.082031 692.179688 309.6875 691.046875 311.265625 C 689.910156 312.847656 688.738281 314.398438 687.535156 315.925781 C 686.328125 317.453125 685.089844 318.953125 683.816406 320.421875 C 682.542969 321.894531 681.234375 323.335938 679.898438 324.746094 C 678.558594 326.160156 677.1875 327.539062 675.789062 328.890625 C 674.386719 330.242188 672.957031 331.558594 671.496094 332.84375 C 670.035156 334.128906 668.546875 335.382812 667.03125 336.601562 C 665.515625 337.816406 663.972656 339 662.402344 340.148438 C 660.832031 341.300781 659.234375 342.410156 657.613281 343.488281 C 655.996094 344.566406 654.351562 345.605469 652.683594 346.605469 C 651.015625 347.609375 649.328125 348.574219 647.617188 349.5 C 645.90625 350.425781 644.175781 351.3125 642.425781 352.160156 C 640.671875 353.007812 638.902344 353.816406 637.117188 354.585938 C 635.328125 355.355469 633.527344 356.082031 631.707031 356.769531 C 629.886719 357.457031 628.050781 358.101562 626.199219 358.703125 C 624.351562 359.308594 622.488281 359.871094 620.613281 360.390625 C 618.738281 360.910156 616.855469 361.386719 614.957031 361.824219 C 613.0625 362.257812 611.15625 362.648438 609.242188 363 C 607.328125 363.347656 605.40625 363.652344 603.480469 363.914062 C 601.550781 364.175781 599.621094 364.394531 597.683594 364.570312 C 595.746094 364.746094 593.804688 364.875 591.859375 364.964844 C 589.917969 365.050781 587.972656 365.09375 586.027344 365.09375 L 484.785156 365.09375 L 484.785156 321.410156 L 586.027344 321.410156 C 587.375 321.410156 588.722656 321.378906 590.070312 321.316406 C 591.417969 321.25 592.761719 321.15625 594.105469 321.03125 C 595.445312 320.902344 596.785156 320.746094 598.121094 320.554688 C 599.453125 320.363281 600.785156 320.140625 602.109375 319.890625 C 603.433594 319.636719 604.75 319.351562 606.0625 319.039062 C 607.371094 318.722656 608.675781 318.375 609.96875 318 C 611.265625 317.621094 612.550781 317.214844 613.824219 316.777344 C 615.101562 316.339844 616.363281 315.875 617.617188 315.375 C 618.871094 314.878906 620.113281 314.351562 621.339844 313.796875 C 622.570312 313.242188 623.785156 312.65625 624.984375 312.042969 C 626.183594 311.429688 627.371094 310.789062 628.542969 310.117188 C 629.710938 309.449219 630.867188 308.753906 632.003906 308.03125 C 633.140625 307.304688 634.261719 306.554688 635.363281 305.777344 C 636.464844 305 637.550781 304.199219 638.613281 303.371094 C 639.675781 302.542969 640.722656 301.691406 641.746094 300.8125 C 642.769531 299.9375 643.773438 299.035156 644.753906 298.109375 C 645.734375 297.1875 646.695312 296.238281 647.628906 295.269531 C 648.566406 294.300781 649.480469 293.308594 650.371094 292.292969 C 651.261719 291.28125 652.125 290.25 652.964844 289.195312 C 653.808594 288.140625 654.621094 287.066406 655.414062 285.972656 C 656.203125 284.882812 656.96875 283.769531 657.703125 282.644531 C 658.441406 281.515625 659.152344 280.367188 659.835938 279.207031 C 660.519531 278.042969 661.175781 276.867188 661.804688 275.671875 C 662.433594 274.480469 663.03125 273.273438 663.601562 272.050781 C 664.175781 270.832031 664.714844 269.597656 665.226562 268.347656 C 665.742188 267.101562 666.222656 265.84375 666.675781 264.574219 C 667.128906 263.304688 667.554688 262.023438 667.945312 260.734375 C 668.339844 259.445312 668.699219 258.144531 669.03125 256.839844 C 669.363281 255.53125 669.664062 254.21875 669.933594 252.894531 C 670.203125 251.574219 670.441406 250.25 670.644531 248.914062 C 670.851562 247.582031 671.027344 246.246094 671.171875 244.90625 C 671.316406 243.566406 671.425781 242.222656 671.507812 240.875 C 671.585938 239.53125 671.632812 238.183594 671.652344 236.835938 C 671.667969 235.488281 671.652344 234.136719 671.605469 232.792969 C 671.554688 231.445312 671.476562 230.097656 671.367188 228.753906 C 671.253906 227.410156 671.113281 226.070312 670.9375 224.734375 C 670.761719 223.394531 670.558594 222.0625 670.320312 220.738281 C 670.082031 219.410156 669.816406 218.089844 669.515625 216.773438 C 669.214844 215.460938 668.882812 214.152344 668.523438 212.851562 C 668.160156 211.554688 667.769531 210.265625 667.347656 208.984375 C 666.925781 207.703125 666.472656 206.433594 665.988281 205.175781 C 665.507812 203.914062 664.996094 202.667969 664.453125 201.433594 C 663.914062 200.199219 663.34375 198.976562 662.742188 197.769531 C 662.144531 196.5625 661.519531 195.367188 660.863281 194.191406 C 660.207031 193.011719 659.523438 191.847656 658.8125 190.703125 C 658.101562 189.558594 657.367188 188.429688 656.601562 187.316406 C 655.839844 186.207031 655.050781 185.113281 654.234375 184.039062 C 653.417969 182.964844 652.578125 181.910156 651.714844 180.878906 C 650.847656 179.84375 649.960938 178.828125 649.046875 177.835938 C 648.132812 176.84375 647.199219 175.875 646.238281 174.925781 C 645.28125 173.980469 644.300781 173.054688 643.296875 172.152344 C 642.292969 171.25 641.269531 170.375 640.226562 169.519531 C 639.183594 168.667969 638.121094 167.839844 637.035156 167.035156 C 635.953125 166.234375 634.851562 165.457031 633.734375 164.703125 C 632.613281 163.953125 631.476562 163.230469 630.320312 162.53125 C 629.167969 161.835938 627.996094 161.164062 626.8125 160.523438 C 625.625 159.882812 624.425781 159.265625 623.210938 158.683594 C 621.996094 158.097656 620.769531 157.539062 619.527344 157.011719 C 618.289062 156.484375 617.035156 155.988281 615.769531 155.519531 C 614.503906 155.050781 613.230469 154.613281 611.945312 154.207031 C 610.660156 153.796875 609.367188 153.421875 608.0625 153.074219 C 606.761719 152.726562 605.449219 152.410156 604.132812 152.125 C 602.8125 151.84375 601.488281 151.589844 600.160156 151.367188 C 598.832031 151.144531 597.496094 150.953125 596.15625 150.792969 L 577.816406 148.636719 L 576.894531 130.195312 C 576.785156 128.046875 576.59375 125.90625 576.324219 123.773438 C 576.054688 121.636719 575.703125 119.519531 575.273438 117.410156 C 574.84375 115.300781 574.332031 113.214844 573.746094 111.144531 C 573.15625 109.074219 572.492188 107.03125 571.75 105.011719 C 571.007812 102.992188 570.191406 101.003906 569.300781 99.046875 C 568.410156 97.089844 567.445312 95.167969 566.410156 93.285156 C 565.371094 91.398438 564.265625 89.558594 563.089844 87.753906 C 561.914062 85.953125 560.671875 84.199219 559.363281 82.492188 C 558.058594 80.785156 556.6875 79.128906 555.253906 77.523438 C 553.820312 75.917969 552.332031 74.371094 550.78125 72.878906 C 549.230469 71.386719 547.628906 69.953125 545.972656 68.582031 C 544.3125 67.210938 542.605469 65.90625 540.851562 64.664062 C 539.09375 63.417969 537.296875 62.246094 535.449219 61.136719 C 533.605469 60.03125 531.722656 58.996094 529.800781 58.03125 C 527.878906 57.066406 525.921875 56.175781 523.933594 55.355469 C 521.941406 54.539062 519.925781 53.796875 517.878906 53.132812 C 515.835938 52.46875 513.765625 51.878906 511.675781 51.371094 C 509.585938 50.859375 507.480469 50.429688 505.359375 50.082031 C 503.234375 49.730469 501.105469 49.460938 498.960938 49.269531 C 496.820312 49.078125 494.671875 48.96875 492.519531 48.941406 C 490.371094 48.914062 488.222656 48.964844 486.074219 49.101562 C 483.925781 49.234375 481.789062 49.449219 479.65625 49.742188 C 477.527344 50.039062 475.410156 50.414062 473.308594 50.867188 C 471.207031 51.324219 469.125 51.855469 467.0625 52.46875 C 465 53.078125 462.960938 53.765625 460.953125 54.53125 C 458.941406 55.296875 456.964844 56.136719 455.015625 57.050781 C 453.070312 57.964844 451.160156 58.953125 449.285156 60.011719 C 447.414062 61.070312 445.582031 62.195312 443.796875 63.390625 C 442.007812 64.589844 440.269531 65.851562 438.574219 67.175781 C 436.882812 68.503906 435.242188 69.894531 433.652344 71.34375 C 432.066406 72.796875 430.535156 74.304688 429.0625 75.871094 C 427.585938 77.4375 426.171875 79.058594 424.820312 80.730469 L 407.21875 102.476562 L 390.398438 80.113281 C 389.128906 78.421875 387.804688 76.78125 386.414062 75.191406 C 385.027344 73.601562 383.582031 72.066406 382.078125 70.582031 C 380.578125 69.097656 379.023438 67.671875 377.417969 66.300781 C 375.808594 64.933594 374.152344 63.625 372.449219 62.378906 C 370.746094 61.132812 368.996094 59.949219 367.207031 58.832031 C 365.414062 57.71875 363.582031 56.667969 361.714844 55.6875 C 359.84375 54.703125 357.941406 53.792969 356.003906 52.953125 C 354.070312 52.113281 352.105469 51.34375 350.109375 50.648438 C 348.117188 49.953125 346.101562 49.332031 344.0625 48.785156 C 342.023438 48.238281 339.964844 47.769531 337.890625 47.375 C 335.816406 46.980469 333.730469 46.664062 331.632812 46.425781 C 329.535156 46.1875 327.433594 46.023438 325.324219 45.941406 C 323.214844 45.855469 321.101562 45.851562 318.992188 45.921875 C 316.882812 45.992188 314.777344 46.144531 312.679688 46.371094 C 310.582031 46.597656 308.492188 46.90625 306.417969 47.285156 C 304.339844 47.667969 302.28125 48.128906 300.238281 48.664062 C 298.195312 49.195312 296.175781 49.804688 294.179688 50.488281 C 292.183594 51.175781 290.210938 51.929688 288.269531 52.761719 C 286.328125 53.589844 284.421875 54.492188 282.546875 55.460938 C 280.671875 56.433594 278.835938 57.472656 277.039062 58.578125 C 275.242188 59.6875 273.484375 60.859375 271.773438 62.09375 C 270.0625 63.332031 268.402344 64.628906 266.785156 65.988281 C 265.171875 67.347656 263.609375 68.765625 262.097656 70.242188 C 260.585938 71.71875 259.132812 73.246094 257.738281 74.828125 C 256.339844 76.410156 255.003906 78.042969 253.726562 79.726562 C 252.449219 81.40625 251.238281 83.132812 250.089844 84.90625 C 248.941406 86.675781 247.859375 88.488281 246.84375 90.339844 C 245.832031 92.191406 244.886719 94.078125 244.011719 96 C 243.136719 97.921875 242.332031 99.871094 241.601562 101.851562 C 240.871094 103.832031 240.214844 105.839844 239.632812 107.867188 C 239.050781 109.898438 238.546875 111.945312 238.113281 114.011719 C 237.683594 116.078125 237.332031 118.160156 237.054688 120.253906 L 234.480469 139.886719 L 213.933594 139.21875 C 213.246094 139.191406 212.554688 139.164062 211.859375 139.164062 C 209.71875 139.164062 207.578125 139.246094 205.441406 139.40625 C 203.304688 139.566406 201.175781 139.808594 199.054688 140.128906 C 196.9375 140.449219 194.832031 140.847656 192.742188 141.328125 C 190.65625 141.804688 188.585938 142.363281 186.539062 142.996094 C 184.492188 143.628906 182.472656 144.339844 180.476562 145.125 C 178.484375 145.910156 176.523438 146.769531 174.59375 147.703125 C 172.664062 148.636719 170.773438 149.640625 168.917969 150.714844 C 167.0625 151.789062 165.253906 152.933594 163.484375 154.144531 C 161.714844 155.355469 159.996094 156.632812 158.324219 157.972656 C 156.652344 159.3125 155.03125 160.714844 153.464844 162.175781 C 151.898438 163.636719 150.386719 165.15625 148.933594 166.730469 C 147.480469 168.304688 146.089844 169.933594 144.757812 171.613281 C 143.429688 173.292969 142.164062 175.019531 140.960938 176.796875 C 139.761719 178.570312 138.628906 180.386719 137.5625 182.246094 C 136.496094 184.109375 135.503906 186.003906 134.582031 187.941406 C 133.660156 189.875 132.8125 191.839844 132.039062 193.839844 C 131.261719 195.835938 130.5625 197.863281 129.941406 199.914062 C 129.320312 201.964844 128.773438 204.035156 128.308594 206.125 C 127.839844 208.21875 127.453125 210.324219 127.144531 212.445312 C 126.835938 214.566406 126.605469 216.695312 126.457031 218.832031 C 126.308594 220.96875 126.242188 223.109375 126.253906 225.253906 C 126.265625 227.398438 126.355469 229.535156 126.53125 231.671875 C 126.703125 233.808594 126.953125 235.9375 127.285156 238.054688 C 127.621094 240.171875 128.03125 242.273438 128.519531 244.359375 C 129.011719 246.445312 129.578125 248.511719 130.222656 250.554688 C 130.867188 252.597656 131.589844 254.613281 132.386719 256.601562 C 133.183594 258.59375 134.054688 260.550781 134.996094 262.472656 C 135.941406 264.398438 136.957031 266.285156 138.039062 268.132812 C 139.125 269.980469 140.277344 271.785156 141.5 273.546875 C 142.71875 275.308594 144.003906 277.019531 145.355469 278.6875 C 146.703125 280.351562 148.113281 281.960938 149.585938 283.523438 C 151.054688 285.082031 152.582031 286.582031 154.167969 288.027344 L 165.207031 298.109375 L 159.804688 312.042969 C 159.238281 313.503906 158.710938 314.980469 158.226562 316.46875 C 157.742188 317.957031 157.300781 319.460938 156.898438 320.972656 C 156.496094 322.488281 156.136719 324.011719 155.816406 325.542969 C 155.5 327.078125 155.222656 328.617188 154.988281 330.167969 C 154.753906 331.714844 154.5625 333.269531 154.414062 334.828125 C 154.265625 336.386719 154.160156 337.949219 154.097656 339.511719 C 154.035156 341.078125 154.015625 342.644531 154.035156 344.210938 C 154.058594 345.777344 154.125 347.339844 154.234375 348.902344 C 154.34375 350.464844 154.496094 352.023438 154.6875 353.578125 C 154.882812 355.128906 155.121094 356.679688 155.398438 358.21875 C 155.679688 359.761719 156 361.292969 156.363281 362.816406 C 156.726562 364.339844 157.128906 365.851562 157.578125 367.351562 C 158.023438 368.851562 158.511719 370.339844 159.039062 371.816406 C 159.566406 373.289062 160.132812 374.75 160.742188 376.191406 C 161.351562 377.636719 161.996094 379.0625 162.683594 380.46875 C 163.367188 381.875 164.09375 383.265625 164.855469 384.632812 C 165.617188 386 166.417969 387.347656 167.253906 388.671875 C 168.089844 389.996094 168.960938 391.292969 169.867188 392.570312 C 170.777344 393.847656 171.71875 395.097656 172.695312 396.324219 C 173.671875 397.546875 174.679688 398.746094 175.722656 399.914062 C 176.761719 401.082031 177.835938 402.222656 178.941406 403.332031 C 180.042969 404.441406 181.179688 405.523438 182.34375 406.570312 C 183.503906 407.617188 184.695312 408.632812 185.917969 409.617188 C 187.136719 410.601562 188.382812 411.546875 189.652344 412.464844 C 190.921875 413.378906 192.21875 414.257812 193.539062 415.101562 C 194.859375 415.941406 196.199219 416.75 197.5625 417.519531 C 198.929688 418.289062 200.3125 419.019531 201.714844 419.714844 C 203.121094 420.410156 204.542969 421.0625 205.980469 421.679688 C 207.421875 422.292969 208.878906 422.871094 210.347656 423.40625 C 211.820312 423.941406 213.304688 424.4375 214.804688 424.890625 C 216.304688 425.347656 217.8125 425.757812 219.335938 426.128906 C 220.855469 426.503906 222.386719 426.832031 223.925781 427.121094 C 225.464844 427.40625 227.011719 427.652344 228.5625 427.855469 C 230.117188 428.058594 231.675781 428.21875 233.234375 428.335938 C 234.796875 428.453125 236.359375 428.527344 237.925781 428.558594 C 239.492188 428.589844 241.058594 428.578125 242.625 428.523438 C 244.1875 428.46875 245.75 428.371094 247.3125 428.230469 C 248.871094 428.089844 250.425781 427.910156 251.976562 427.683594 C 253.523438 427.457031 255.066406 427.1875 256.601562 426.878906 C 258.136719 426.570312 259.664062 426.21875 261.179688 425.824219 C 262.695312 425.429688 264.199219 424.996094 265.691406 424.519531 C 267.183594 424.042969 268.660156 423.523438 270.121094 422.96875 C 271.585938 422.410156 273.035156 421.8125 274.464844 421.175781 C 275.894531 420.539062 277.308594 419.863281 278.699219 419.148438 C 280.09375 418.433594 281.46875 417.683594 282.820312 416.894531 C 284.171875 416.101562 285.5 415.277344 286.808594 414.414062 C 288.117188 413.550781 289.398438 412.652344 290.65625 411.71875 C 291.914062 410.789062 293.144531 409.820312 294.351562 408.820312 C 295.554688 407.820312 296.730469 406.785156 297.878906 405.722656 C 299.027344 404.65625 300.144531 403.558594 301.234375 402.433594 C 302.320312 401.308594 303.378906 400.152344 304.402344 398.96875 C 305.425781 397.78125 306.417969 396.570312 307.375 395.332031 C 308.332031 394.09375 309.257812 392.828125 310.144531 391.539062 C 311.035156 390.25 311.886719 388.9375 312.703125 387.601562 C 313.519531 386.265625 314.300781 384.90625 315.042969 383.527344 C 315.785156 382.148438 316.488281 380.75 317.152344 379.332031 C 317.816406 377.914062 318.445312 376.480469 319.03125 375.027344 C 319.617188 373.578125 320.164062 372.109375 320.667969 370.628906 C 321.175781 369.144531 321.640625 367.652344 322.066406 366.144531 C 322.488281 364.636719 322.871094 363.117188 323.210938 361.589844 C 323.554688 360.058594 323.851562 358.523438 324.109375 356.980469 C 324.363281 355.433594 324.578125 353.882812 324.75 352.324219 C 324.921875 350.769531 325.050781 349.210938 325.136719 347.644531 C 325.222656 346.082031 325.265625 344.515625 325.265625 342.949219 L 325.265625 310.832031 L 355.132812 322.644531 C 360.0625 324.59375 475.816406 372.195312 475.816406 530.480469 Z M 475.816406 530.480469 " fill-opacity="1" fill-rule="nonzero"/></g><path stroke-linecap="butt" transform="matrix(1.10245, -0.000000000000000273, 0.000000000000000273, 1.10245, 477.278163, 202.4018)" fill="none" stroke-linejoin="miter" d="M -0.000743424 24.498488 L 270.823631 24.498488 " stroke="#7d3cff" stroke-width="49" stroke-opacity="1" stroke-miterlimit="4"/><path stroke-linecap="round" transform="matrix(1.10245, -0.000000000000000273, 0.000000000000000273, 1.10245, 477.278163, 202.4018)" fill="none" stroke-linejoin="round" d="M 172.824566 -48.999039 L 270.823631 24.498488 L 172.824566 97.999559 " stroke="#7d3cff" stroke-width="49" stroke-opacity="1" stroke-miterlimit="4"/><path stroke-linecap="butt" transform="matrix(-1.10245, 0, 0, -1.10245, 316.063463, 256.421894)" fill="none" stroke-linejoin="miter" d="M 0.000873916 24.501556 L 261.166363 24.501556 " stroke="#1164d2" stroke-width="49" stroke-opacity="1" stroke-miterlimit="4"/><path stroke-linecap="round" transform="matrix(-1.10245, 0, 0, -1.10245, 316.063463, 256.421894)" fill="none" stroke-linejoin="round" d="M 163.167298 -48.999515 L 261.166363 24.501556 L 163.167298 97.999083 " stroke="#1164d2" stroke-width="49" stroke-opacity="1" stroke-miterlimit="4"/></g></g></svg>